<?xml version="1.0" encoding="utf-8"?>
<!-- Generator: Adobe Illustrator 28.0.0, SVG Export Plug-In . SVG Version: 6.00 Build 0)  -->
<svg version="1.1" id="SRB_Logo_blanco" xmlns="http://www.w3.org/2000/svg" xmlns:xlink="http://www.w3.org/1999/xlink" x="0px"
	 y="0px" viewBox="0 0 142 37.5" style="enable-background:new 0 0 142 37.5;" xml:space="preserve">
<g id="Layer_1">
	<path id="Trazado_79" d="M2.8,16.2c0.9,1.8,2.8,3,4.9,2.9c2.3,0,3.8-1.1,3.8-2.8c0-2-1.5-2.7-3.4-3.6l-1.4-0.7
		c-3.2-1.4-5.3-3-5.3-6.4s2.4-5.6,6-5.6c2.5-0.1,4.9,1.2,6.1,3.4l-2.6,1.7c-0.7-1.3-2-2.1-3.5-2.1C6,3,4.8,3.9,4.6,5.2
		c0,0.1,0,0.2,0,0.4c0,1.7,1,2.4,3.4,3.4l1.5,0.7c3.2,1.4,5.4,2.9,5.4,6.6c0,3.9-3,5.9-7.1,5.9c-3.2,0.1-6.2-1.6-7.7-4.5L2.8,16.2"
		/>
	<path id="Trazado_80" d="M17.3,11.2c-0.1-6,4.7-10.9,10.7-11c0.1,0,0.2,0,0.4,0c6-0.1,10.9,4.6,11.1,10.6c0,0.1,0,0.3,0,0.4
		c0.1,6-4.7,10.9-10.7,11c-0.1,0-0.2,0-0.4,0c-6,0.1-10.9-4.6-11.1-10.6C17.3,11.4,17.3,11.3,17.3,11.2 M36,11.2
		c0-4.5-3.1-7.9-7.6-7.9s-7.6,3.4-7.6,7.9s3.1,7.9,7.6,7.9S36,15.7,36,11.2"/>
	<path id="Trazado_81" d="M57.8,21.9h-4l-3.7-5.2c-0.5,0.1-1,0.1-1.5,0.1h-2.1v5.1h-3.4V0.4h5.5c5.9,0,9.1,3.2,9.1,8.2
		c0.2,3-1.5,5.9-4.3,7.2L57.8,21.9 M48.5,13.9c4.1,0,5.8-2,5.8-5.2s-1.7-5.2-5.8-5.2h-2v10.4L48.5,13.9z"/>
	<path id="Trazado_82" d="M63.2,0.4h7.6c4.3,0,6.3,2.4,6.3,5.5c0,1.7-1,3.3-2.6,4.1c2.5,0.6,4.2,2.9,4.1,5.4c0,3.6-2.3,6.5-7.2,6.5
		h-8.2V0.4 M70.6,8.9c2.3,0,3.1-1.1,3.1-2.8s-0.8-2.7-3.1-2.7h-4.1v5.5L70.6,8.9z M71.1,19c3,0,4-1.5,4-3.7s-1.2-3.7-4.1-3.7h-4.5
		V19L71.1,19z"/>
	<path id="Trazado_83" d="M84.7,21.9h-3.4L90.7,0h0.2l9.4,21.9h-3.6l-1.2-3H86L84.7,21.9 M90.8,7.4l-3.6,8.5h7.1L90.8,7.4"/>
	<path id="Trazado_84" d="M119.6,21.9h-4l-3.7-5.2c-0.5,0.1-1,0.1-1.5,0.1h-2.1v5.1h-3.4V0.4h5.5c5.9,0,9.1,3.2,9.1,8.2
		c0.2,3-1.5,5.9-4.3,7.2L119.6,21.9 M110.2,13.9c4.1,0,5.8-2,5.8-5.2s-1.7-5.2-5.8-5.2h-2v10.4L110.2,13.9z"/>
	<path id="Trazado_85" d="M126.4,21.9H123L132.4,0h0.2l9.4,21.9h-3.6l-1.2-3h-9.6L126.4,21.9 M132.4,7.4l-3.6,8.5h7.1L132.4,7.4"/>
	<path id="Trazado_86" d="M15.7,30.7L15.7,30.7c0.2,0,0.3,0.1,0.2,0.2c0,0.1-0.1,0.1-0.2,0.2h-0.1c-0.5,0-0.9,0-0.9,0.8
		c-0.9-0.6-1.9-0.9-2.9-0.8c-0.1,0-0.2-0.1-0.2-0.2c0-0.1,0.1-0.1,0.2-0.2c1,0,2-0.3,2.9-0.9C14.8,30.6,15.2,30.7,15.7,30.7"/>
	<path id="Trazado_87" d="M1.5,30.7c0.1,0,0.2,0.1,0.2,0.1c0,0.1-0.1,0.2-0.2,0.2c-0.1,0-0.2-0.1-0.2-0.2
		C1.3,30.7,1.4,30.7,1.5,30.7 M2,30.7c0.1,0,0.2,0.1,0.2,0.1C2.2,30.9,2.1,31,2,31c-0.1,0-0.2-0.1-0.2-0.2C1.9,30.7,2,30.6,2,30.7
		C2,30.7,2,30.7,2,30.7 M2.6,30.7c0.1,0,0.2,0.1,0.2,0.1c0,0.1-0.1,0.2-0.2,0.2c-0.1,0-0.1-0.1-0.1-0.2C2.5,30.7,2.6,30.7,2.6,30.7
		 M3.3,30.7c0.1,0,0.2,0.1,0.2,0.2c0,0.1-0.1,0.1-0.2,0.2H3.2C3.1,31,3,30.9,3,30.8c0-0.1,0.1-0.1,0.2-0.2H3.3z M4.1,30.7
		c0.1,0,0.2,0.1,0.2,0.2c0,0.1-0.1,0.1-0.2,0.2H3.9c-0.1,0-0.2-0.1-0.2-0.2c0-0.1,0.1-0.1,0.2-0.2H4.1z M5.1,30.7
		c0.1,0,0.2,0.1,0.2,0.2c0,0.1-0.1,0.1-0.2,0.2H4.7c-0.1,0-0.2-0.1-0.2-0.2c0-0.1,0.1-0.1,0.2-0.2H5.1z M6.2,30.7
		c0.1,0,0.2,0.1,0.2,0.2c0,0.1-0.1,0.1-0.2,0.2H5.7c-0.1,0-0.2-0.1-0.2-0.2c0-0.1,0.1-0.1,0.2-0.2H6.2z M7.5,30.7
		c0.1,0,0.2,0.1,0.2,0.2c0,0.1-0.1,0.1-0.2,0.2H6.8c-0.1,0-0.2-0.1-0.2-0.2c0-0.1,0.1-0.1,0.2-0.2H7.5z M8.9,30.7
		c0.1,0,0.2,0.1,0.2,0.2C9.1,30.9,9,31,8.9,31H8.1C8,31,7.9,30.9,8,30.8c0-0.1,0.1-0.1,0.2-0.2H8.9z M10.5,30.7
		c0.1,0,0.2,0.1,0.2,0.2c0,0.1-0.1,0.1-0.2,0.2h-1c-0.1,0-0.2-0.1-0.2-0.2c0-0.1,0.1-0.1,0.2-0.2H10.5z M12.2,30.7
		c0.1,0,0.2,0.1,0.2,0.2c0,0.1-0.1,0.1-0.2,0.2h-1.1c-0.1,0-0.2-0.1-0.2-0.2c0-0.1,0.1-0.1,0.2-0.2H12.2z"/>
	<path id="Trazado_88" d="M126.4,31L126.4,31c-0.2,0-0.3-0.1-0.2-0.2c0-0.1,0.1-0.1,0.2-0.2h0.1c0.5,0,0.9,0,0.9-0.9
		c0.8,0.6,1.9,0.9,2.9,0.9c0.1,0,0.2,0.1,0.2,0.2c0,0.1-0.1,0.2-0.2,0.2c0,0,0,0,0,0c-1,0-2,0.3-2.9,0.8C127.3,31,126.9,31,126.4,31
		"/>
	<path id="Trazado_89" d="M129.9,31c-0.1,0-0.2-0.1-0.2-0.2c0-0.1,0.1-0.2,0.2-0.2c0,0,0,0,0,0h1.1c0.1,0,0.2,0.1,0.2,0.2
		c0,0.1-0.1,0.1-0.2,0.2H129.9 M131.6,31c-0.1,0-0.2-0.1-0.2-0.2c0-0.1,0.1-0.1,0.2-0.2h1c0.1,0,0.2,0.1,0.2,0.2
		c0,0.1-0.1,0.1-0.2,0.2H131.6z M133.2,31c-0.1,0-0.2-0.1-0.2-0.2c0-0.1,0.1-0.2,0.2-0.2c0,0,0,0,0,0h0.8c0.1,0,0.2,0.1,0.2,0.2
		c0,0.1-0.1,0.2-0.2,0.2c0,0,0,0,0,0H133.2z M134.6,31c-0.1,0-0.2-0.1-0.2-0.2c0-0.1,0.1-0.2,0.2-0.2c0,0,0,0,0,0h0.7
		c0.1,0,0.2,0.1,0.2,0.2c0,0.1-0.1,0.2-0.2,0.2c0,0,0,0,0,0H134.6z M135.9,31c-0.1,0-0.2-0.1-0.2-0.2c0-0.1,0.1-0.2,0.2-0.2
		c0,0,0,0,0,0h0.6c0.1,0,0.2,0.1,0.2,0.2c0,0.1-0.1,0.1-0.2,0.2H135.9z M137,31c-0.1,0-0.2-0.1-0.2-0.2c0-0.1,0.1-0.1,0.2-0.2h0.4
		c0.1,0,0.2,0.1,0.2,0.2c0,0.1-0.1,0.1-0.2,0.2H137z M138,31c-0.1,0-0.2-0.1-0.2-0.2c0-0.1,0.1-0.2,0.2-0.2c0,0,0,0,0,0h0.3
		c0.1,0,0.2,0.1,0.2,0.2c0,0.1-0.1,0.1-0.2,0.2H138z M138.8,31c-0.1,0-0.2-0.1-0.2-0.2c0-0.1,0.1-0.2,0.2-0.2c0,0,0,0,0,0h0.1
		c0.1,0,0.2,0.1,0.2,0.2c0,0.1-0.1,0.1-0.2,0.2H138.8z M139.5,31c-0.1,0-0.2-0.1-0.2-0.2c0-0.1,0.1-0.2,0.2-0.2
		c0.1,0,0.2,0.1,0.2,0.2C139.7,30.9,139.6,31,139.5,31 M140.1,31c-0.1,0-0.2-0.1-0.2-0.2c0-0.1,0.1-0.2,0.2-0.2
		c0.1,0,0.2,0.1,0.2,0.2C140.2,30.9,140.2,31,140.1,31 M140.7,31c-0.1,0-0.2-0.1-0.2-0.2c0-0.1,0.1-0.2,0.2-0.2
		c0.1,0,0.2,0.1,0.2,0.2C140.9,30.9,140.8,31,140.7,31C140.7,31,140.7,31,140.7,31"/>
	<path id="Trazado_90" d="M26.1,37.5c-0.8,0-1.5-0.4-1.8-1.1l0.4-0.2c0.2,0.5,0.7,0.9,1.3,0.8c0.7,0,1.4-0.5,1.5-1.3
		c0.1-0.6-0.3-1.1-0.9-1.2c-0.1,0-0.2,0-0.2,0c-0.2,0-0.4,0-0.6,0.1c-0.2,0.1-0.3,0.2-0.4,0.2c-0.2,0-0.4-0.2-0.4-0.4c0,0,0,0,0-0.1
		c0.1-0.3,0.4-0.5,0.7-0.6c-0.6-0.3-0.9-0.9-0.8-1.6c0.2-1,1.1-1.8,2.2-1.8h1.4c0.3,0,0.5-0.2,0.6-0.6h0.3l-0.1,0.5
		c-0.1,0.4-0.3,0.7-0.6,0.9c0.2,0.3,0.2,0.6,0.2,1c-0.1,0.7-0.5,1.2-1.1,1.5c0.7,0.3,1.1,1.1,1,1.8C28.3,36.6,27.3,37.5,26.1,37.5
		 M25.9,32.1c-0.1,0.5,0.2,1.1,0.7,1.2c0.1,0,0.1,0,0.2,0c0.7-0.1,1.2-0.6,1.3-1.3c0.1-0.6-0.2-1.1-0.8-1.3c-0.1,0-0.1,0-0.2,0
		C26.5,30.9,26,31.4,25.9,32.1"/>
	<path id="Trazado_91" d="M32.3,30.8c0.3-0.4,0.6-0.7,1-0.7c0.4,0,0.6,0.3,0.6,0.6c0,0,0,0.1,0,0.1c-0.1,0.4-0.4,0.7-0.8,0.7
		c-0.3,0-0.5-0.2-0.6-0.4l-0.9,1.2l-0.5,3.2h-1.1l0.6-4.2c0-0.2-0.1-0.4-0.3-0.4c0,0-0.1,0-0.1,0c-0.2,0-0.4,0.2-0.4,0.4l-0.1,0.4
		h-0.2l0.1-0.4c0.1-0.6,0.6-1,1.2-1c0.5,0,0.9,0.4,0.9,0.9c0,0.1,0,0.1,0,0.2l0,0.3L32.3,30.8"/>
	<path id="Trazado_92" d="M36,35.6c-1.2,0-2-1.3-1.8-2.8c0.1-1.4,1.2-2.6,2.6-2.8c1.2,0,1.9,1.2,1.7,2.8
		C38.2,34.4,37.1,35.6,36,35.6 M35.3,32.9c-0.2,1.1,0.3,2,1,2s1.4-0.9,1.6-2.1c0.2-1.1-0.3-2.1-1-2.1S35.5,31.7,35.3,32.9"/>
	<path id="Trazado_93" d="M43.8,35.6c-0.5,0-0.9-0.4-0.9-0.9c0-0.1,0-0.1,0-0.2l0.1-0.4l-0.3,0.4c-0.3,0.5-0.9,0.9-1.5,1
		c-0.6,0-1.1-0.5-1.1-1.1c0-0.1,0-0.2,0-0.2l0.4-3.1c0-0.2-0.1-0.4-0.3-0.4c0,0-0.1,0-0.1,0c-0.2,0-0.4,0.2-0.4,0.4l-0.1,0.4h-0.3
		l0.1-0.4c0.1-0.6,0.6-1,1.2-1c0.5,0,0.9,0.4,0.9,0.9c0,0.1,0,0.1,0,0.2l-0.4,3.1c-0.1,0.3,0.1,0.5,0.4,0.6c0,0,0.1,0,0.1,0
		c0.3,0,0.7-0.2,1.1-0.9l0.4-0.5l0.5-3.2h1l-0.6,4.3c0,0.2,0.1,0.4,0.3,0.4c0,0,0.1,0,0.1,0c0.2,0,0.4-0.2,0.4-0.4l0.1-0.4H45
		L45,34.5C44.9,35.2,44.4,35.6,43.8,35.6"/>
	<path id="Trazado_94" d="M48.7,35.6c-0.6,0-1.1-0.5-1.3-1.1l-0.4,3h-1l0.9-6.3c0-0.2-0.1-0.4-0.3-0.4c0,0,0,0-0.1,0
		c-0.2,0-0.4,0.2-0.4,0.4L46,31.7h-0.3l0.1-0.4c0.1-0.6,0.6-1,1.2-1c0.5,0,0.9,0.4,0.9,0.9c0,0,0,0,0,0.1c0.3-0.6,0.9-1,1.6-1.1
		c1,0,1.7,1.3,1.5,2.8C50.7,34.4,49.7,35.6,48.7,35.6 M49,30.8c-0.5,0-1.2,0.9-1.4,2.1c-0.2,1.1,0.2,2.1,0.8,2.1s1.2-0.9,1.4-2.1
		C50,31.7,49.6,30.8,49,30.8"/>
	<path id="Trazado_95" d="M56.7,35.6c-1.2,0-2-1.3-1.8-2.8c0.1-1.4,1.2-2.6,2.5-2.8c1.2,0,1.9,1.2,1.7,2.8
		C59,34.4,57.9,35.6,56.7,35.6 M56,32.9c-0.2,1.1,0.3,2,1,2s1.4-0.9,1.6-2.1c0.2-1.1-0.3-2.1-1-2.1S56.2,31.7,56,32.9"/>
	<path id="Trazado_96" d="M62.3,30.8c0.8,0.8,1.2,2,1,3.1C63,36,61.8,37.5,61,37.5c-0.7,0-0.8-0.7-0.5-3.1l0.5-3.6h-0.7l0.1-0.5h0.7
		l0.2-2.1h1l-0.3,2.1h1.8l-0.1,0.5L62.3,30.8 M61.5,34.5c-0.2,1.4-0.2,2.2,0,2.2s1-1.2,1.2-2.7c0.2-1-0.1-2-0.8-2.6L61.5,34.5z"/>
	<path id="Trazado_97" d="M70.7,32.6c-0.3,0-0.6-0.2-0.6-0.6c0,0,0-0.1,0-0.1c0.1-0.4,0.3-0.6,0.7-0.7H71c-0.2-0.3-0.5-0.5-0.8-0.5
		c-0.9,0-1.4,1-1.6,2.2s0,2.2,1,2.2c0.6-0.1,1-0.5,1.2-1l0.4,0.1c-0.3,0.8-1.1,1.4-1.9,1.4c-1.3,0-2.1-1.2-1.9-2.7
		c0.1-1.4,1.2-2.5,2.7-2.7c0.8-0.1,1.5,0.5,1.6,1.3c0,0.1,0,0.2,0,0.4C71.5,32.2,71.2,32.6,70.7,32.6L70.7,32.6"/>
	<path id="Trazado_98" d="M74.1,35.6c-1.2,0-2-1.2-1.8-2.8c0.1-1.4,1.2-2.6,2.6-2.8c1.2,0,1.9,1.2,1.7,2.8S75.3,35.6,74.1,35.6
		 M73.5,32.9c-0.2,1.1,0.3,2,1,2s1.4-0.9,1.6-2.1s-0.3-2.1-1-2.1S73.6,31.7,73.5,32.9"/>
	<path id="Trazado_99" d="M84.3,35.6c-0.5,0-0.9-0.4-0.9-0.9c0-0.1,0-0.1,0-0.2l0.5-3.2c0-0.2-0.1-0.5-0.3-0.5c0,0,0,0-0.1,0
		c-0.3,0-0.6,0.3-1,0.8l-0.2,0.3l-0.5,3.6h-1l0.6-4.1c0.1-0.2-0.1-0.5-0.3-0.5c0,0-0.1,0-0.1,0c-0.3,0-0.7,0.4-1,0.8l-0.2,0.3
		l-0.5,3.6h-1l0.6-4.2c0-0.2-0.1-0.4-0.3-0.4c0,0-0.1,0-0.1,0c-0.2,0-0.4,0.2-0.4,0.4l-0.1,0.4h-0.3l0.1-0.4c0.1-0.6,0.6-1,1.2-1
		c0.5,0,0.9,0.3,0.9,0.7c0,0.1,0,0.2,0,0.3l0.3-0.4c0.3-0.4,0.8-0.7,1.3-0.8c0.6,0,1,0.5,1,1.1c0,0,0,0,0,0l0.3-0.4
		c0.3-0.4,0.8-0.7,1.3-0.7c0.6,0,1,0.4,1,1c0,0.1,0,0.1,0,0.2l-0.5,3.3c0,0.2,0.1,0.4,0.3,0.4c0,0,0,0,0.1,0c0.2,0,0.4-0.2,0.4-0.4
		l0.1-0.4h0.3l-0.1,0.4C85.4,35.2,84.9,35.6,84.3,35.6"/>
	<path id="Trazado_100" d="M89.3,35.6c-0.6,0-1.1-0.5-1.3-1.1l-0.4,3h-1l0.9-6.3c0-0.2-0.1-0.4-0.3-0.4c0,0,0,0-0.1,0
		c-0.2,0-0.4,0.2-0.4,0.4l-0.1,0.4h-0.3l0.1-0.4c0.1-0.6,0.6-1,1.2-1c0.5,0,0.9,0.4,0.9,0.9c0,0,0,0,0,0.1c0.3-0.6,0.9-1,1.6-1.1
		c1,0,1.7,1.3,1.4,2.8C91.3,34.4,90.3,35.6,89.3,35.6 M89.6,30.8c-0.5,0-1.2,0.9-1.4,2.1c-0.2,1.1,0.2,2.1,0.8,2.1s1.2-0.9,1.4-2.1
		C90.5,31.7,90.2,30.8,89.6,30.8"/>
	<path id="Trazado_101" d="M96.5,35.6c-0.5,0-0.9-0.4-0.9-0.9c0-0.1,0-0.1,0-0.2c-0.3,0.6-0.9,1-1.6,1.1c-1,0-1.7-1.3-1.5-2.8
		c0.2-1.5,1.2-2.8,2.3-2.8c0.6,0.1,1.1,0.5,1.3,1.1l0.1-0.6c0.1-0.3,0.3-0.5,0.6-0.5c0.2,0,0.4,0.2,0.5,0.4c0,0,0,0,0,0.1l-0.6,4
		c0,0.2,0.1,0.4,0.3,0.4c0,0,0,0,0,0c0.2,0,0.4-0.2,0.4-0.4l0.1-0.4h0.3l-0.1,0.4C97.6,35.2,97.1,35.6,96.5,35.6 M95.1,30.8
		c-0.6,0-1.2,0.9-1.4,2.1c-0.2,1.1,0.2,2.1,0.8,2.1s1.2-0.9,1.4-2.1C96,31.7,95.6,30.8,95.1,30.8"/>
	<path id="Trazado_102" d="M103,35.6c-0.5,0-0.9-0.4-0.9-0.9c0-0.1,0-0.1,0-0.2l0.4-3.1c0.1-0.3-0.1-0.5-0.4-0.6c0,0-0.1,0-0.1,0
		c-0.3,0-0.8,0.3-1.2,0.9l-0.4,0.5l-0.5,3.2h-1l0.6-4.2c0-0.2-0.1-0.4-0.3-0.4c0,0-0.1,0-0.1,0c-0.2,0-0.4,0.2-0.4,0.4l-0.1,0.4
		h-0.3l0.1-0.4c0.1-0.6,0.6-1,1.2-1c0.5,0,0.9,0.4,0.9,0.9c0,0.1,0,0.1,0,0.2l-0.1,0.3l0.4-0.5c0.3-0.6,0.9-0.9,1.5-1
		c0.6,0,1.1,0.5,1.1,1.1c0,0.1,0,0.1,0,0.2l-0.5,3.2c0,0.2,0.1,0.4,0.3,0.4c0,0,0,0,0.1,0c0.2,0,0.4-0.2,0.4-0.4l0.1-0.4h0.3
		l-0.1,0.4C104.1,35.2,103.6,35.6,103,35.6"/>
	<path id="Trazado_103" d="M106.1,35.6c-0.5,0-0.9-0.4-0.8-0.9c0-0.1,0-0.1,0-0.2l0.6-4.3h1l-0.6,4.3c0,0.2,0.1,0.4,0.3,0.4
		c0,0,0,0,0.1,0c0.2,0,0.4-0.2,0.4-0.4l0.1-0.4h0.3l-0.1,0.4C107.2,35.2,106.7,35.6,106.1,35.6 M106.6,28.4c0.3,0,0.5,0.2,0.5,0.5
		c0,0,0,0.1,0,0.1c-0.1,0.3-0.3,0.5-0.6,0.5c-0.3,0-0.5-0.2-0.5-0.5c0,0,0-0.1,0-0.1C106,28.7,106.2,28.4,106.6,28.4"/>
	<path id="Trazado_104" d="M112.5,31.5c-0.1,0.8-1.2,1.5-3,1.5c-0.2,1.4,0.3,2,1,2c0.6-0.1,1.1-0.5,1.3-1.1l0.4,0.1
		c-0.3,0.9-1.1,1.5-2,1.5c-1.3,0-2-1.3-1.8-2.7c0.1-1.4,1.2-2.6,2.7-2.8C112.3,30.1,112.6,30.9,112.5,31.5 M110.9,30.6
		c-0.7,0-1.2,1.1-1.4,2c0.9,0.1,1.7-0.4,1.9-1.3C111.5,30.9,111.2,30.6,110.9,30.6"/>
	<path id="Trazado_105" d="M114.8,35.6c-0.9-0.1-1.7-0.7-1.9-1.7l1.7-2.4c-0.2-0.2-0.3-0.5-0.2-0.8c0.1-0.5,0.5-0.9,1-0.8
		c0.4,0,0.7,0.3,0.7,0.6c0,0.1,0,0.1,0,0.2c-0.1,0.2-0.2,0.5-0.4,0.6l0.8,1.4c0.2,0.4,0.4,0.9,0.3,1.4
		C116.6,35.1,115.8,35.7,114.8,35.6 M115.7,33.4l-0.7-1.3l-1.3,1.9c0.2,0.5,0.7,0.9,1.2,1c0.4,0,0.9-0.2,1-0.7
		C115.9,34,115.8,33.7,115.7,33.4"/>
</g>
</svg>
